<svg version="1.0" xmlns="http://www.w3.org/2000/svg" viewBox="0 0 213.000000 215.000000">

<g transform="translate(0.000000,215.000000) scale(0.100000,-0.100000)"
fill="#000000" stroke="none">
<path d="M977 1975 c-145 -137 -413 -275 -657 -340 l-65 -17 7 -101 c37 -501
256 -985 556 -1231 88 -71 201 -146 222 -146 21 0 134 75 222 146 273 224 478
642 543 1106 14 100 20 228 11 228 -2 0 -49 13 -104 30 -240 71 -466 192 -610
325 -33 30 -61 55 -63 55 -2 -1 -30 -25 -62 -55z m121 -64 c157 -135 370 -240
661 -327 11 -4 13 -22 7 -92 -3 -48 -11 -113 -17 -144 l-12 -58 -697 0 -697 0
-12 58 c-6 31 -14 96 -17 144 -6 70 -4 88 7 92 291 87 527 205 669 334 25 23
46 41 48 42 2 0 29 -22 60 -49z m-198 -738 c71 -50 94 -121 94 -293 0 -234
-51 -300 -231 -300 l-63 0 0 305 0 305 88 0 c67 0 93 -4 112 -17z m318 -165
l62 -183 0 183 0 182 40 0 40 0 0 -305 0 -305 -40 0 -39 0 -59 183 c-33 100
-62 191 -64 202 -3 11 -3 -71 0 -182 l5 -203 -41 0 -42 0 0 305 0 305 38 0 38
0 62 -182z"/>
<path d="M880 1654 c-178 -117 -180 -118 -180 -147 0 -23 60 -122 88 -144 12
-10 84 -13 284 -13 l268 0 0 50 0 50 -248 0 c-249 0 -272 3 -272 36 0 7 52 46
116 87 l115 75 102 -60 c56 -33 116 -69 134 -80 l32 -19 26 41 c15 23 25 43
23 45 -34 28 -302 175 -319 175 -13 0 -89 -43 -169 -96z"/>
<path d="M780 890 l0 -230 28 0 c39 0 68 24 83 68 17 49 17 265 0 314 -14 44
-53 78 -87 78 l-24 0 0 -230z"/>
</g>
</svg>
