<svg xmlns="http://www.w3.org/2000/svg" xmlns:xlink="http://www.w3.org/1999/xlink" width="1080" zoomAndPan="magnify" viewBox="0 0 810 809.999993" height="1080" preserveAspectRatio="xMidYMid meet" version="1.0"><path fill="rgba(255, 232, 128, 0.25)" d="M 404.996094 0 C 398.367188 0 391.742188 0.164062 385.121094 0.488281 C 378.503906 0.8125 371.894531 1.300781 365.296875 1.949219 C 358.703125 2.601562 352.125 3.410156 345.570312 4.382812 C 339.011719 5.355469 332.484375 6.488281 325.984375 7.78125 C 319.484375 9.074219 313.019531 10.527344 306.589844 12.136719 C 300.160156 13.75 293.773438 15.515625 287.429688 17.441406 C 281.089844 19.363281 274.796875 21.441406 268.554688 23.675781 C 262.316406 25.90625 256.132812 28.292969 250.007812 30.828125 C 243.886719 33.367188 237.828125 36.050781 231.835938 38.886719 C 225.84375 41.71875 219.925781 44.699219 214.082031 47.824219 C 208.234375 50.945312 202.46875 54.214844 196.785156 57.621094 C 191.101562 61.027344 185.503906 64.574219 179.992188 68.253906 C 174.480469 71.9375 169.0625 75.753906 163.738281 79.703125 C 158.414062 83.648438 153.191406 87.726562 148.070312 91.929688 C 142.945312 96.136719 137.925781 100.464844 133.015625 104.914062 C 128.105469 109.367188 123.308594 113.9375 118.621094 118.621094 C 113.933594 123.308594 109.363281 128.109375 104.914062 133.019531 C 100.460938 137.929688 96.132812 142.949219 91.929688 148.070312 C 87.722656 153.195312 83.648438 158.417969 79.699219 163.742188 C 75.75 169.066406 71.9375 174.484375 68.253906 179.996094 C 64.570312 185.503906 61.027344 191.105469 57.617188 196.789062 C 54.210938 202.472656 50.945312 208.238281 47.820312 214.085938 C 44.695312 219.929688 41.71875 225.847656 38.882812 231.839844 C 36.050781 237.832031 33.363281 243.890625 30.828125 250.011719 C 28.292969 256.136719 25.90625 262.320312 23.675781 268.558594 C 21.441406 274.800781 19.363281 281.09375 17.4375 287.433594 C 15.515625 293.777344 13.746094 300.164062 12.136719 306.59375 C 10.527344 313.023438 9.074219 319.488281 7.78125 325.988281 C 6.488281 332.488281 5.355469 339.019531 4.382812 345.574219 C 3.410156 352.128906 2.601562 358.707031 1.949219 365.304688 C 1.300781 371.898438 0.8125 378.507812 0.488281 385.128906 C 0.164062 391.746094 0 398.371094 0 405 C 0 411.628906 0.164062 418.253906 0.488281 424.871094 C 0.8125 431.492188 1.300781 438.101562 1.949219 444.695312 C 2.601562 451.292969 3.410156 457.871094 4.382812 464.425781 C 5.355469 470.980469 6.488281 477.511719 7.78125 484.011719 C 9.074219 490.511719 10.527344 496.976562 12.136719 503.40625 C 13.75 509.835938 15.515625 516.222656 17.441406 522.566406 C 19.363281 528.90625 21.441406 535.199219 23.675781 541.441406 C 25.90625 547.679688 28.292969 553.863281 30.828125 559.988281 C 33.367188 566.109375 36.050781 572.167969 38.886719 578.160156 C 41.71875 584.152344 44.699219 590.070312 47.824219 595.914062 C 50.945312 601.761719 54.214844 607.527344 57.621094 613.210938 C 61.027344 618.898438 64.574219 624.496094 68.253906 630.007812 C 71.9375 635.515625 75.753906 640.933594 79.703125 646.257812 C 83.648438 651.582031 87.726562 656.804688 91.929688 661.929688 C 96.136719 667.054688 100.464844 672.070312 104.914062 676.980469 C 109.367188 681.890625 113.9375 686.691406 118.621094 691.378906 C 123.308594 696.066406 128.109375 700.632812 133.019531 705.085938 C 137.929688 709.535156 142.949219 713.863281 148.070312 718.070312 C 153.195312 722.273438 158.417969 726.351562 163.742188 730.300781 C 169.066406 734.246094 174.484375 738.0625 179.996094 741.746094 C 185.503906 745.425781 191.105469 748.972656 196.789062 752.378906 C 202.472656 755.789062 208.238281 759.054688 214.085938 762.179688 C 219.929688 765.300781 225.847656 768.28125 231.839844 771.117188 C 237.832031 773.949219 243.890625 776.632812 250.011719 779.171875 C 256.136719 781.707031 262.320312 784.09375 268.558594 786.324219 C 274.800781 788.558594 281.09375 790.636719 287.433594 792.5625 C 293.777344 794.484375 300.164062 796.253906 306.59375 797.863281 C 313.023438 799.472656 319.488281 800.925781 325.988281 802.21875 C 332.488281 803.511719 339.019531 804.644531 345.574219 805.617188 C 352.128906 806.589844 358.707031 807.398438 365.304688 808.050781 C 371.898438 808.699219 378.507812 809.1875 385.128906 809.511719 C 391.746094 809.835938 398.371094 810 405 810 C 411.628906 810 418.253906 809.835938 424.871094 809.511719 C 431.492188 809.1875 438.101562 808.699219 444.695312 808.050781 C 451.292969 807.398438 457.871094 806.589844 464.425781 805.617188 C 470.980469 804.644531 477.511719 803.511719 484.011719 802.21875 C 490.511719 800.925781 496.976562 799.472656 503.40625 797.863281 C 509.835938 796.25 516.222656 794.484375 522.566406 792.558594 C 528.90625 790.636719 535.199219 788.558594 541.441406 786.324219 C 547.679688 784.09375 553.863281 781.707031 559.988281 779.171875 C 566.109375 776.632812 572.167969 773.949219 578.160156 771.113281 C 584.152344 768.28125 590.070312 765.300781 595.914062 762.175781 C 601.761719 759.054688 607.527344 755.785156 613.210938 752.378906 C 618.898438 748.972656 624.496094 745.425781 630.007812 741.746094 C 635.515625 738.0625 640.933594 734.246094 646.257812 730.296875 C 651.582031 726.351562 656.804688 722.273438 661.929688 718.070312 C 667.054688 713.863281 672.070312 709.535156 676.980469 705.085938 C 681.890625 700.632812 686.691406 696.0625 691.378906 691.378906 C 696.066406 686.691406 700.632812 681.890625 705.085938 676.980469 C 709.535156 672.070312 713.863281 667.050781 718.070312 661.929688 C 722.273438 656.804688 726.351562 651.582031 730.300781 646.257812 C 734.246094 640.933594 738.0625 635.515625 741.746094 630.003906 C 745.425781 624.496094 748.972656 618.894531 752.378906 613.210938 C 755.789062 607.527344 759.054688 601.761719 762.179688 595.914062 C 765.300781 590.070312 768.28125 584.152344 771.117188 578.160156 C 773.949219 572.167969 776.632812 566.109375 779.171875 559.988281 C 781.707031 553.863281 784.09375 547.679688 786.324219 541.441406 C 788.558594 535.199219 790.636719 528.90625 792.5625 522.566406 C 794.484375 516.222656 796.253906 509.835938 797.863281 503.40625 C 799.472656 496.976562 800.925781 490.511719 802.21875 484.011719 C 803.511719 477.511719 804.644531 470.980469 805.617188 464.425781 C 806.589844 457.871094 807.398438 451.292969 808.050781 444.695312 C 808.699219 438.101562 809.1875 431.492188 809.511719 424.871094 C 809.835938 418.253906 810 411.628906 810 405 C 809.992188 398.375 809.824219 391.75 809.492188 385.132812 C 809.160156 378.515625 808.664062 371.910156 808.007812 365.316406 C 807.351562 358.722656 806.535156 352.148438 805.558594 345.597656 C 804.578125 339.042969 803.441406 332.515625 802.144531 326.019531 C 800.84375 319.519531 799.386719 313.058594 797.773438 306.632812 C 796.160156 300.207031 794.386719 293.824219 792.460938 287.484375 C 790.53125 281.144531 788.449219 274.855469 786.214844 268.617188 C 783.976562 262.382812 781.589844 256.203125 779.050781 250.082031 C 776.511719 243.960938 773.824219 237.90625 770.988281 231.917969 C 768.152344 225.929688 765.171875 220.015625 762.042969 214.171875 C 758.917969 208.328125 755.652344 202.566406 752.242188 196.882812 C 748.835938 191.203125 745.289062 185.605469 741.605469 180.097656 C 737.921875 174.589844 734.105469 169.175781 730.160156 163.855469 C 726.210938 158.53125 722.132812 153.3125 717.929688 148.191406 C 713.726562 143.066406 709.398438 138.050781 704.949219 133.144531 C 700.496094 128.234375 695.929688 123.4375 691.246094 118.75 C 686.558594 114.066406 681.761719 109.496094 676.851562 105.046875 C 671.941406 100.597656 666.925781 96.269531 661.804688 92.066406 C 656.683594 87.863281 651.464844 83.785156 646.140625 79.835938 C 640.820312 75.890625 635.40625 72.074219 629.898438 68.390625 C 624.386719 64.707031 618.792969 61.164062 613.109375 57.753906 C 607.429688 54.34375 601.664062 51.078125 595.824219 47.953125 C 589.980469 44.828125 584.066406 41.84375 578.078125 39.007812 C 572.085938 36.171875 566.035156 33.484375 559.914062 30.945312 C 553.792969 28.40625 547.613281 26.019531 541.375 23.785156 C 535.136719 21.546875 528.851562 19.464844 522.511719 17.539062 C 516.171875 15.609375 509.789062 13.839844 503.363281 12.226562 C 496.933594 10.609375 490.472656 9.152344 483.976562 7.855469 C 477.476562 6.558594 470.953125 5.417969 464.398438 4.441406 C 457.84375 3.464844 451.269531 2.644531 444.675781 1.992188 C 438.082031 1.335938 431.476562 0.839844 424.859375 0.507812 C 418.242188 0.175781 411.621094 0.0078125 404.996094 0 Z M 797.289062 398.726562 L 684.46875 398.726562 C 684.394531 381.800781 683.53125 364.914062 681.878906 348.066406 C 680.230469 331.21875 677.800781 314.484375 674.589844 297.863281 C 671.378906 281.242188 667.402344 264.808594 662.664062 248.558594 C 657.921875 232.308594 652.433594 216.316406 646.203125 200.574219 C 675.695312 197.878906 704.871094 194.695312 733.730469 191.023438 C 738.753906 198.703125 743.496094 206.550781 747.964844 214.5625 C 752.433594 222.578125 756.613281 230.738281 760.507812 239.046875 C 764.398438 247.359375 767.992188 255.792969 771.289062 264.355469 C 774.585938 272.917969 777.578125 281.585938 780.261719 290.363281 C 782.945312 299.136719 785.320312 307.992188 787.378906 316.933594 C 789.4375 325.875 791.179688 334.878906 792.605469 343.941406 C 794.027344 353.007812 795.132812 362.109375 795.914062 371.253906 C 796.695312 380.394531 797.152344 389.550781 797.289062 398.726562 Z M 298.398438 398.726562 L 138.070312 398.726562 C 138.136719 381.882812 139 365.078125 140.660156 348.316406 C 142.320312 331.554688 144.769531 314.910156 148.007812 298.378906 C 151.246094 281.847656 155.257812 265.507812 160.042969 249.359375 C 164.832031 233.210938 170.371094 217.320312 176.664062 201.699219 C 221.003906 205.523438 265.929688 208.222656 311.4375 209.804688 C 302.882812 272.488281 298.535156 335.460938 298.394531 398.726562 Z M 323.539062 210.21875 C 350.554688 211.023438 377.707031 211.433594 404.996094 211.449219 C 432.28125 211.464844 459.4375 211.054688 486.457031 210.21875 C 494.910156 272.769531 499.109375 335.605469 499.050781 398.726562 L 310.949219 398.726562 C 310.886719 335.605469 315.085938 272.769531 323.539062 210.21875 Z M 298.394531 411.273438 C 298.542969 473.554688 302.753906 535.558594 311.03125 597.289062 C 265.335938 598.863281 220.179688 601.589844 175.558594 605.472656 C 169.453125 590.046875 164.074219 574.371094 159.429688 558.445312 C 154.785156 542.519531 150.890625 526.414062 147.746094 510.125 C 144.601562 493.835938 142.222656 477.433594 140.609375 460.921875 C 138.992188 444.414062 138.148438 427.863281 138.074219 411.273438 Z M 310.949219 411.273438 L 499.050781 411.273438 C 499.09375 473.410156 495.023438 535.277344 486.84375 596.871094 C 459.703125 596.058594 432.417969 595.640625 404.996094 595.625 C 377.570312 595.609375 350.289062 596.027344 323.152344 596.871094 C 314.96875 535.277344 310.902344 473.410156 310.949219 411.273438 Z M 511.597656 411.273438 L 671.925781 411.273438 C 671.851562 427.863281 671.007812 444.414062 669.394531 460.925781 C 667.777344 477.433594 665.398438 493.835938 662.253906 510.125 C 659.113281 526.414062 655.214844 542.519531 650.570312 558.449219 C 645.925781 574.375 640.546875 590.046875 634.441406 605.472656 C 589.878906 601.613281 544.71875 598.886719 498.96875 597.289062 C 507.246094 535.558594 511.453125 473.554688 511.597656 411.273438 Z M 511.597656 398.75 C 511.460938 335.484375 507.117188 272.511719 498.5625 209.824219 C 544.015625 208.265625 588.941406 205.5625 633.335938 201.71875 C 639.628906 217.34375 645.167969 233.230469 649.953125 249.382812 C 654.742188 265.53125 658.753906 281.871094 661.992188 298.402344 C 665.226562 314.933594 667.675781 331.578125 669.335938 348.339844 C 670.996094 365.101562 671.859375 381.90625 671.925781 398.75 Z M 725.789062 179.367188 C 697.863281 182.863281 669.621094 185.886719 641.066406 188.445312 C 608.207031 113.523438 558.894531 55.214844 500.496094 24.355469 C 511.785156 27.210938 522.925781 30.5625 533.917969 34.40625 C 544.910156 38.25 555.707031 42.574219 566.316406 47.378906 C 576.921875 52.179688 587.296875 57.445312 597.4375 63.167969 C 607.578125 68.890625 617.445312 75.054688 627.039062 81.652344 C 636.632812 88.253906 645.914062 95.265625 654.882812 102.6875 C 663.855469 110.113281 672.480469 117.917969 680.757812 126.105469 C 689.035156 134.296875 696.933594 142.835938 704.457031 151.726562 C 711.976562 160.617188 719.085938 169.824219 725.789062 179.34375 Z M 628.039062 189.550781 C 584.820312 193.203125 541.042969 195.789062 496.710938 197.304688 C 483.75 112.707031 462.714844 44.15625 434.996094 15.089844 C 515.605469 28.402344 585.441406 94.636719 628.039062 189.550781 Z M 404.996094 12.523438 C 435.164062 12.523438 466.761719 82.160156 484.582031 197.683594 C 458.183594 198.445312 431.652344 198.84375 404.996094 198.878906 C 378.335938 198.917969 351.808594 198.519531 325.410156 197.683594 C 343.238281 82.183594 374.8125 12.523438 404.996094 12.523438 Z M 313.28125 197.3125 C 269.003906 195.820312 225.230469 193.230469 181.957031 189.550781 C 224.550781 94.636719 294.390625 28.402344 374.996094 15.089844 C 347.28125 44.15625 326.242188 112.707031 313.28125 197.3125 Z M 309.492188 24.355469 C 251.09375 55.214844 201.789062 113.523438 168.925781 188.410156 C 140.386719 185.851562 112.144531 182.824219 84.203125 179.332031 C 90.90625 169.8125 98.019531 160.605469 105.539062 151.71875 C 113.058594 142.828125 120.957031 134.289062 129.234375 126.101562 C 137.515625 117.910156 146.136719 110.105469 155.109375 102.683594 C 164.078125 95.257812 173.363281 88.25 182.953125 81.648438 C 192.546875 75.050781 202.414062 68.890625 212.554688 63.164062 C 222.695312 57.441406 233.066406 52.179688 243.675781 47.375 C 254.28125 42.574219 265.082031 38.25 276.070312 34.40625 C 287.0625 30.5625 298.203125 27.210938 309.492188 24.355469 Z M 76.277344 191.023438 C 105.117188 194.71875 134.292969 197.90625 163.804688 200.574219 C 157.570312 216.316406 152.085938 232.308594 147.34375 248.558594 C 142.601562 264.808594 138.625 281.242188 135.417969 297.863281 C 132.207031 314.484375 129.777344 331.21875 128.125 348.066406 C 126.476562 364.914062 125.613281 381.800781 125.535156 398.726562 L 12.703125 398.726562 C 12.839844 389.550781 13.300781 380.394531 14.082031 371.25 C 14.863281 362.109375 15.96875 353.007812 17.390625 343.941406 C 18.816406 334.878906 20.558594 325.875 22.621094 316.933594 C 24.679688 307.992188 27.050781 299.132812 29.738281 290.359375 C 32.421875 281.585938 35.414062 272.917969 38.710938 264.355469 C 42.007812 255.792969 45.605469 247.355469 49.496094 239.046875 C 53.390625 230.738281 57.570312 222.578125 62.039062 214.5625 C 66.507812 206.550781 71.253906 198.703125 76.277344 191.023438 Z M 12.703125 411.273438 L 125.523438 411.273438 C 125.605469 427.945312 126.445312 444.582031 128.050781 461.179688 C 129.65625 477.777344 132.015625 494.265625 135.128906 510.644531 C 138.246094 527.027344 142.101562 543.230469 146.703125 559.257812 C 151.300781 575.285156 156.625 591.066406 162.671875 606.605469 C 132.96875 609.339844 103.589844 612.5625 74.535156 616.28125 C 69.644531 608.675781 65.027344 600.90625 60.683594 592.980469 C 56.335938 585.050781 52.269531 576.980469 48.484375 568.769531 C 44.695312 560.558594 41.203125 552.226562 37.996094 543.773438 C 34.789062 535.316406 31.882812 526.761719 29.269531 518.105469 C 26.660156 509.449219 24.351562 500.710938 22.351562 491.894531 C 20.347656 483.078125 18.652344 474.199219 17.265625 465.265625 C 15.882812 456.332031 14.808594 447.359375 14.046875 438.347656 C 13.285156 429.339844 12.839844 420.3125 12.703125 411.273438 Z M 82.296875 627.976562 C 110.433594 624.421875 138.894531 621.351562 167.679688 618.765625 C 200.535156 695.039062 250.367188 754.421875 309.492188 785.648438 C 298.070312 782.757812 286.796875 779.363281 275.679688 775.464844 C 264.5625 771.5625 253.644531 767.171875 242.921875 762.289062 C 232.199219 757.40625 221.714844 752.054688 211.472656 746.234375 C 201.230469 740.410156 191.269531 734.140625 181.589844 727.421875 C 171.910156 720.703125 162.550781 713.566406 153.515625 706.007812 C 144.476562 698.449219 135.792969 690.503906 127.46875 682.164062 C 119.144531 673.828125 111.210938 665.132812 103.667969 656.085938 C 96.125 647.035156 89 637.664062 82.296875 627.976562 Z M 180.726562 617.605469 C 224.199219 613.90625 268.238281 611.292969 312.835938 609.761719 C 325.757812 695.710938 346.992188 765.492188 374.996094 794.894531 C 293.597656 781.46875 223.195312 714.039062 180.726562 617.605469 Z M 405 797.4375 C 374.5625 797.4375 342.714844 726.621094 324.980469 609.367188 C 351.519531 608.582031 378.195312 608.179688 405 608.160156 C 431.804688 608.140625 458.480469 608.542969 485.027344 609.367188 C 467.285156 726.636719 435.453125 797.476562 404.996094 797.476562 Z M 497.15625 609.777344 C 541.707031 611.292969 585.746094 613.910156 629.265625 617.621094 C 586.796875 714.039062 516.394531 781.46875 434.996094 794.910156 C 463.03125 765.507812 484.234375 695.71875 497.15625 609.777344 Z M 500.496094 785.664062 C 559.628906 754.4375 609.457031 695.046875 642.3125 618.78125 C 671.082031 621.378906 699.542969 624.449219 727.695312 627.992188 C 720.992188 637.679688 713.871094 647.050781 706.324219 656.097656 C 698.78125 665.148438 690.847656 673.84375 682.523438 682.179688 C 674.195312 690.515625 665.515625 698.460938 656.476562 706.019531 C 647.4375 713.578125 638.078125 720.714844 628.398438 727.429688 C 618.71875 734.148438 608.757812 740.417969 598.515625 746.238281 C 588.273438 752.0625 577.792969 757.414062 567.066406 762.292969 C 556.34375 767.175781 545.425781 771.566406 534.308594 775.464844 C 523.191406 779.367188 511.921875 782.761719 500.496094 785.648438 Z M 735.460938 616.292969 C 706.433594 612.550781 677.054688 609.328125 647.324219 606.617188 C 653.367188 591.078125 658.691406 575.296875 663.292969 559.269531 C 667.890625 543.242188 671.75 527.035156 674.863281 510.65625 C 677.980469 494.277344 680.339844 477.789062 681.945312 461.191406 C 683.546875 444.59375 684.390625 427.957031 684.46875 411.285156 L 797.289062 411.285156 C 797.15625 420.324219 796.707031 429.347656 795.945312 438.359375 C 795.183594 447.367188 794.109375 456.339844 792.722656 465.273438 C 791.339844 474.207031 789.644531 483.082031 787.640625 491.898438 C 785.636719 500.714844 783.332031 509.453125 780.71875 518.109375 C 778.109375 526.761719 775.199219 535.316406 771.996094 543.773438 C 768.789062 552.226562 765.292969 560.558594 761.507812 568.769531 C 757.722656 576.980469 753.65625 585.046875 749.3125 592.976562 C 744.964844 600.902344 740.347656 608.671875 735.460938 616.277344 Z M 735.460938 616.292969 " fill-opacity="1" fill-rule="nonzero"/></svg>