<svg xmlns="http://www.w3.org/2000/svg" viewBox="115.72 110.31 167.67 131.33">
  <path fill="#FFCA1A" fill-rule="evenodd"
    d="M194.727 110.812c-8.84.255-21.35 3.322-29.297 7.181-.86.418-1.856.759-2.214.758-.358-.001-.709.145-.781.323-.072.179-1.273.924-2.669 1.657-1.397.732-2.715 1.464-2.93 1.626-.215.162-1.797 1.209-3.516 2.327-1.718 1.119-3.213 2.139-3.32 2.268-.107.129-.811.662-1.562 1.185-3.61 2.51-13.216 12.13-14.49 14.51-.253.472-.804 1.221-1.225 1.664-.868.914-3.035 3.967-3.035 4.275 0 .112-.508.959-1.129 1.883-2.282 3.396-5.903 10.438-5.903 11.479 0 .303-.176.552-.39.552-.215 0-.391.513-.391 1.139 0 .627-.14 1.198-.31 1.27-.368.154-2.33 6.173-2.653 8.138-.124.752-.375 1.719-.558 2.148-.631 1.486-1.533 8.041-1.879 13.672-.516 8.396.509 21.144 1.907 23.725.203.373.376 1.077.385 1.563.022 1.123.898 4.468 1.266 4.836.154.154.28.569.28.923 0 .353.351 1.37.781 2.259.429.89.781 1.967.781 2.394 0 .428.176.886.391 1.019.214.133.39.583.39 1 0 .417.176.758.391.758.215 0 .394.307.399.683.005.376.353 1.123.773 1.661.42.537.768 1.338.772 1.781.005.443.361 1.183.79 1.644.43.461.781 1.029.782 1.262 0 .233.351.801.781 1.262.429.461.781 1.069.781 1.351 0 .281.132.514.293.516.161.003.629.706 1.039 1.563l.747 1.558h4.89c7.245 0 12.576-2.013 9.828-3.711-.215-.133-.391-.561-.391-.952 0-1.829-1.889-1.608-7.897.926-2.191.923-2.804.781-3.689-.853-.436-.806-1.2-2.168-1.696-3.027-1.348-2.333-4.686-9.154-4.686-9.574 0-.201-.338-1.118-.751-2.037-.727-1.617-2.046-5.914-2.553-8.311-.136-.645-.415-1.875-.62-2.734-1.343-5.624-1.956-13.177-1.112-13.699.238-.147 3.222-.236 6.63-.199 6.276.07 7.781-.194 7.781-1.364 0-.323.282-1.018.628-1.546 1.321-2.016.884-2.138-7.647-2.138h-7.825l.003-2.051c.007-4.657 2.491-18.086 3.555-19.218.191-.204.348-.696.348-1.093s.352-1.45.781-2.339c.43-.89.782-1.77.782-1.956 0-.581 3.882-8.438 4.295-8.693.216-.134.392-.54.392-.903.001-.364.435-1.166.966-1.783.531-.617 1.064-1.436 1.186-1.819.324-1.02 1.268-1.237 2.669-.615.678.302 1.585.642 2.015.755.43.114 3.066 1.01 5.859 1.992 6.38 2.243 6.205 2.248 6.77-.203.488-2.111.368-2.699-.548-2.699-.313 0-.873-.156-1.247-.346-.373-.191-1.908-.734-3.412-1.207-1.504-.473-3.086-1.009-3.516-1.19-.429-.182-1.451-.557-2.271-.834-2.904-.982-2.761-1.445 1.978-6.38 1.128-1.174 2.051-2.315 2.051-2.534 0-.22.17-.399.378-.399.207 0 .956-.572 1.664-1.27.707-.698 2.251-2.058 3.431-3.022 1.179-.964 2.232-1.843 2.34-1.953.107-.11.479-.376.826-.591.348-.215 1.93-1.283 3.516-2.374 1.586-1.091 3.675-2.409 4.642-2.93.967-.52 1.846-1.034 1.953-1.142.467-.466 1.992-1.171 2.534-1.171.325 0 .591-.176.591-.391 0-.215.258-.391.574-.391.316 0 1.151-.321 1.856-.714.704-.393 1.633-.815 2.062-.938.43-.122 1.991-.672 3.469-1.222 6.209-2.309 7.229-1.855 3.758 1.671-1.289 1.309-2.344 2.496-2.344 2.638 0 .142-.269.536-.598.876-1.167 1.207-2.526 2.967-2.527 3.272 0 .17-.352.687-.781 1.148-.43.461-.781 1.069-.781 1.351 0 .281-.176.512-.391.512-.215 0-.391.168-.391.373 0 .206-.489 1.217-1.086 2.247-1.353 2.332-4.382 8.884-4.382 9.477 0 1.276 4.859.257 5.528-1.159 2.15-4.555 4.652-9.131 5.091-9.31.175-.072.318-.339.318-.593 0-.39.698-1.353 3.45-4.756.178-.221.637-.88 1.021-1.465.383-.585.94-1.064 1.238-1.064.298 0 .541-.243.541-.541 0-.298.396-.807.879-1.132.483-.326 1.56-1.225 2.393-1.998.832-.774 1.655-1.407 1.827-1.407.173 0 .549-.235.836-.522.748-.749 5.281-2.843 7.325-3.386 1.918-.508 2.852.094 2.728 1.758-.032.43-.039 3.991-.016 7.912l.044 7.129h2.148c1.782 0 2.15-.117 2.159-.684.006-.376.026-3.672.045-7.324.034-6.728.361-9.18 1.224-9.18.946 0 6.559 2.035 7.097 2.573.304.304.751.552.994.552 1.865 0 11.023 9.531 13.512 14.063.412.751.862 1.455.998 1.562.305.241 3.663 6.868 4.215 8.32.375.987.554 1.055 2.785 1.055h2.385l-.276-1.257c-.152-.691-.407-1.526-.568-1.855-.16-.329-.866-1.829-1.568-3.333-.702-1.504-1.603-3.201-2.002-3.772-.4-.57-.726-1.317-.726-1.66 0-.343-.148-.623-.328-.623-.181 0-.522-.426-.759-.946-.238-.52-.695-1.268-1.018-1.66-.322-.393-1.431-1.852-2.464-3.243-1.032-1.391-2.898-3.588-4.147-4.883-2.19-2.271-2.333-3.263-.315-2.183.427.228 1.116.415 1.531.415.653 0 1.686.352 5.742 1.955 3.563 1.409 11.486 5.324 12.87 6.36.371.278 4.509 3.026 6.008 3.99.334.215.997.742 1.474 1.172.477.429 1.708 1.484 2.737 2.343 2.845 2.378 8.356 8.097 8.356 8.671 0 .28.172.509.382.509.21 0 .676.45 1.036 1 .879 1.34.42 1.742-3.566 3.116-1.719.592-3.6 1.315-4.18 1.605-.58.291-1.424.529-1.875.529-2.077 0-3.205 1.103-2.922 2.858.432 2.676.91 2.913 3.845 1.906 1.375-.472 2.872-.858 3.327-.858.456 0 .828-.176.828-.39 0-.215.24-.391.534-.391.457 0 1.996-.546 5.521-1.96 2.066-.828 3.32-.8 3.32.076 0 .207.494 1.111 1.099 2.009 1.506 2.238 4.37 7.87 4.37 8.594 0 .325.143.649.318.721.397.163 2.084 4.434 2.983 7.552.372 1.289.92 3.047 1.22 3.906.851 2.445 2.086 10.207 2.206 13.868l.109 3.32-7.607.106c-4.183.059-7.746.247-7.918.419-.609.608.924 4.352 1.814 4.429 1.273.112 3.164.17 8.242.254 6.211.103 5.916-.185 5.351 5.213-.845 8.061-2.876 16.186-5.599 22.391-5.352 12.199-6.948 14.206-10.145 12.755-3.233-1.467-6.632-2.527-6.955-2.169-.429.473-1.207 2.845-1.207 3.676 0 2.296 13.637 3.411 15.482 1.266.508-.591.924-1.294.924-1.563 0-.268.132-.489.293-.491.162-.002.489-.397.729-.879.239-.482.98-1.931 1.646-3.22 2.462-4.764 4.364-8.927 4.364-9.552 0-.353.147-.81.328-1.014.318-.36 2.492-7.179 3.169-9.941 3.36-13.702 2.104-35.522-2.683-46.615-.448-1.038-.814-2.071-.814-2.295 0-.224-.528-1.446-1.172-2.714-.645-1.268-1.172-2.564-1.172-2.88 0-.316-.176-.574-.391-.574-.214 0-.39-.352-.39-.782 0-.429-.154-.781-.342-.781-.188 0-.443-.506-.567-1.125-.124-.618-.477-1.377-.785-1.684-.308-.308-.933-1.252-1.39-2.098-1.223-2.264-4.197-6.676-5.118-7.593-.108-.107-.608-.781-1.111-1.497-.933-1.328-5.868-6.659-8.173-8.827-4.694-4.418-5.721-5.301-6.167-5.301-.275 0-.559-.132-.631-.293-.706-1.588-13.071-8.812-18.978-11.087-.483-.186-1.274-.497-1.758-.69-.483-.193-1.494-.562-2.246-.821-.752-.258-1.719-.603-2.148-.766-1.958-.744-3.65-1.187-4.54-1.187-.532 0-1.135-.148-1.339-.33-.348-.31-2.698-.757-8.475-1.611-2.68-.397-10.814-.67-15.724-.528m-.586 25.898c-2.821.676-3.523 1.033-5.661 2.881-4.892 4.229-5.007 5.083-3.516 26.229.075 1.075.232 3.661.349 5.747.305 5.479 1.151 6.903 7.273 12.233 4.458 3.881 9.654 3.703 14.453-.497 6.276-5.491 6.08-4.906 7.268-21.659 1.235-17.4 1.177-17.958-2.237-21.371-3.464-3.464-11.595-5.08-17.929-3.563m-33.789 10.981c-5.542 3.178-6.658 5.115-6.281 10.903.132 2.041.324 5.029.426 6.64.479 7.566 1.133 14.116 1.428 14.299.179.11.325.518.325.905 0 .566 3.308 3.963 5.943 6.103 3.113 2.529 6.847 1.886 11.347-1.954 3.98-3.396 4.254-4.084 4.831-12.126 1.305-18.167.659-21.256-5.08-24.314-1.534-.817-11.685-1.175-12.939-.456m66.556.114c-2.363.844-4.261 2.316-5.79 4.488-1.439 2.047-1.12 21.714.442 27.199.581 2.038 5.961 7.313 8.118 7.959 7.149 2.142 13.633-4.045 14.279-13.623.138-2.041.472-6.769.742-10.507.669-9.254.211-11.178-3.323-13.974-2.625-2.078-10.593-2.927-14.468-1.542m-45.463 37.061c-3.975 1.382-5.664 2.08-5.664 2.339 0 .162-.273.295-.607.295-.676 0-4.622 2.602-5.838 3.849-4.047 4.151-4.473 7.297-2.178 16.073.197.752.644 2.51.994 3.906.35 1.397.884 3.418 1.187 4.492.303 1.075.933 3.535 1.4 5.469.467 1.934 1.419 5.625 2.115 8.203.696 2.578 1.491 5.848 1.766 7.266.824 4.247-1.777 3.835 24.436 3.87 12.658.017 23.308.023 23.668.014.868-.023 1.077-.751 6.388-22.283.344-1.396.951-3.681 1.347-5.078.397-1.396.811-2.978.921-3.515.109-.537.487-2.12.84-3.516.955-3.784 1.374-8.143.898-9.339-1.703-4.272-2.936-5.821-6.165-7.742-.967-.575-1.846-1.152-1.953-1.282-.616-.746-8.345-3.512-9.812-3.512-1.082 0-1.133.073-5.504 7.813-3.455 6.117-5.39 9.52-6.553 11.523-.499.859-1.276 2.266-1.726 3.125-1.803 3.44-1.982 3.318-6.007-4.102-.758-1.396-2.141-3.81-3.075-5.364-.934-1.554-1.698-3.004-1.698-3.223 0-.218-.155-.397-.345-.397-.19 0-.443-.308-.562-.684-.119-.376-.932-1.914-1.806-3.418-.875-1.503-1.885-3.305-2.245-4.003-.715-1.386-1.867-1.598-4.222-.779m-30.468 2.029c-3.425 1.262-3.716 1.399-5.884 2.768-2.709 1.711-4.733 3.948-5.439 6.012-.947 2.77-.859 3.375 2.134 14.677.911 3.437 1.878 7.216 2.15 8.398.765 3.318 2.148 8.681 2.519 9.766.184.537.557 2.031.829 3.32.687 3.256 2.208 6.41 3.341 6.926.515.234.936.565.936.735 0 .75 3.461 1.124 10.416 1.126 8.459.002 8.11.152 7.269-3.123-.741-2.886-1.142-4.508-1.69-6.836-.252-1.074-.766-2.92-1.141-4.101-.375-1.182-.889-3.116-1.144-4.297-.752-3.495-1.943-8.065-2.423-9.296-.193-.494-.35-1.381-.35-1.973 0-.591-.147-1.242-.328-1.446-.18-.204-.551-1.426-.823-2.715-.273-1.289-.653-2.853-.844-3.476-.192-.623-.349-2.618-.349-4.432 0-2.573-.159-3.528-.721-4.336-.396-.571-1.313-2.18-2.036-3.576-1.608-3.104-3.047-5.094-3.637-5.032-.243.026-1.496.436-2.785.911m93.524-.408c-.305.243-.792.859-1.081 1.367-1.247 2.197-2.067 3.646-2.837 5.017-.452.806-.958 1.641-1.124 1.856-.166.214-.391 2.236-.501 4.492-.109 2.256-.47 4.98-.803 6.054-.333 1.075-1.069 3.799-1.635 6.055-.566 2.256-1.915 7.529-2.997 11.719-1.083 4.189-2.049 8.144-2.147 8.789-.099.644-.338 1.523-.532 1.953-.36.796-1.547 5.782-1.547 6.497 0 .256 2.971.35 8.513.269l8.513-.125 1.658-1.314c2.065-1.637 2.866-3.203 3.927-7.671.458-1.933 1.201-4.834 1.651-6.445.449-1.611.982-3.633 1.186-4.492.549-2.323 1.174-4.817 3.429-13.672 2.277-8.945 2.095-11.278-1.163-14.906-2.438-2.714-11.167-6.512-12.51-5.443" />
</svg>